<svg width="25" height="25" viewBox="0 0 30 30" fill="none" xmlns="http://www.w3.org/2000/svg">
<g id="comment 1">
<g id="Group">
<path id="Vector" d="M2.18896 12.5C2.18896 6.975 6.66896 2.5 12.1952 2.5H17.6527C23.2652 2.5 27.814 7.05 27.814 12.6625C27.814 16.3625 25.8052 19.7625 22.569 21.55L12.5015 27.125V22.5125H12.4177C6.80521 22.6375 2.18896 18.125 2.18896 12.5ZM12.1952 5C8.04896 5 4.68896 8.3625 4.68896 12.5C4.68896 16.7125 8.15146 20.1 12.3615 20.0125L12.8002 20H15.0015V22.875L21.3602 19.3625C23.799 18.0125 25.314 15.45 25.314 12.6625C25.314 8.425 21.884 5 17.6527 5H12.1952Z" stroke="#9BBD7E" stroke-width="1" stroke-linecap="round" stroke-linejoin="round"/>
</g>
</g>
</svg>
