<svg xmlns="http://www.w3.org/2000/svg" xmlns:xlink="http://www.w3.org/1999/xlink" width="500" zoomAndPan="magnify" viewBox="0 0 375 374.999991" height="500" preserveAspectRatio="xMidYMid meet" version="1.0"><path fill="#9bbf7f" d="M 361.097656 35.164062 C 339.101562 2.578125 299.398438 17.871094 271.578125 31.515625 C 251.523438 41.28125 232.113281 53.21875 214.054688 66.394531 C 200.351562 76.453125 227.40625 111.976562 241.523438 101.683594 C 258.582031 89.214844 276.8125 78.039062 295.578125 68.511719 C 297.28125 67.628906 298.988281 66.808594 300.695312 65.984375 C 300.929688 65.867188 301.578125 65.570312 302.046875 65.335938 C 302.578125 65.101562 303.105469 64.867188 303.636719 64.628906 C 307.28125 62.984375 310.988281 61.453125 314.75 60.042969 C 321.28125 57.574219 328.042969 55.574219 334.925781 54.453125 C 336.21875 54.21875 337.574219 54.101562 338.867188 53.984375 C 338.808594 54.867188 338.75 55.75 338.632812 56.632812 C 338.277344 60.632812 337.574219 64.570312 336.75 68.511719 C 335.632812 73.921875 334.984375 75.863281 333.042969 82.097656 C 324.339844 109.742188 311.398438 136.09375 297.988281 161.738281 C 297.222656 152.972656 296.460938 144.210938 295.695312 135.386719 C 294.222656 118.214844 267.578125 118.152344 269.109375 135.503906 C 271.109375 158.207031 273.050781 180.972656 274.992188 203.675781 C 275.578125 210.496094 280.695312 217.789062 288.34375 217.144531 C 310.871094 215.144531 333.277344 213.144531 355.804688 211.144531 C 372.804688 209.675781 372.863281 182.734375 355.6875 184.207031 C 347.984375 184.851562 340.21875 185.617188 332.457031 186.265625 C 347.335938 157.503906 361.039062 127.859375 369.15625 96.449219 C 374.6875 74.6875 373.863281 54.101562 361.097656 35.164062 Z M 361.097656 35.164062 " fill-opacity="1" fill-rule="nonzero"/><path fill="#9bbf7f" d="M 265.167969 239.257812 C 245.230469 265.84375 225.230469 292.371094 205.292969 318.957031 C 186.234375 296.488281 167.238281 274.078125 148.179688 251.609375 C 155.296875 251.257812 162.414062 250.847656 169.53125 250.492188 C 185.648438 249.609375 185.707031 224.203125 169.472656 225.027344 C 149.652344 226.085938 129.828125 227.144531 110.007812 228.203125 C 103.421875 228.554688 97.128906 233.789062 97.480469 240.964844 C 98.539062 261.84375 99.597656 282.726562 100.714844 303.664062 C 101.597656 319.957031 126.710938 320.015625 125.828125 303.605469 C 125.476562 296.019531 125.066406 288.488281 124.652344 280.902344 C 147.179688 307.488281 169.765625 334.074219 192.292969 360.660156 C 199.703125 369.421875 217.113281 372.421875 224.761719 362.246094 C 249.640625 329.132812 274.402344 296.078125 299.28125 263.023438 C 313.988281 243.496094 278.695312 221.203125 265.167969 239.257812 Z M 265.167969 239.257812 " fill-opacity="1" fill-rule="nonzero"/><path fill="#9bbf7f" d="M 39.898438 72.160156 C 40.015625 71.394531 40.25 69.863281 40.425781 69.160156 C 40.722656 67.867188 41.191406 66.6875 41.664062 65.453125 C 41.722656 65.21875 41.78125 65.101562 41.898438 64.925781 C 41.957031 64.808594 42.015625 64.75 42.074219 64.6875 C 42.722656 63.6875 43.542969 62.808594 44.367188 61.984375 C 44.425781 61.925781 44.542969 61.867188 44.601562 61.808594 C 45.542969 61.277344 46.484375 60.867188 47.484375 60.453125 C 47.957031 60.335938 48.367188 60.21875 48.777344 60.21875 C 49.484375 60.101562 50.25 59.984375 51.015625 59.925781 C 51.777344 59.984375 54.308594 59.984375 55.191406 60.042969 C 57.25 60.21875 59.25 60.632812 61.25 61.042969 C 61.542969 61.101562 61.953125 61.21875 62.425781 61.335938 C 63.070312 61.511719 63.660156 61.691406 64.308594 61.867188 C 69.71875 63.453125 74.953125 65.453125 80.128906 67.628906 C 82.539062 68.628906 84.953125 69.746094 87.363281 70.863281 C 87.65625 70.984375 90.246094 72.21875 90.65625 72.453125 C 92.363281 73.335938 94.070312 74.160156 95.714844 75.042969 C 109.890625 82.453125 123.652344 90.863281 137.121094 99.566406 C 133.535156 99.863281 129.886719 100.214844 126.300781 100.507812 C 117.066406 101.332031 109.300781 107.800781 109.359375 117.800781 C 109.359375 126.625 117.183594 135.800781 126.417969 134.976562 C 143.417969 133.445312 160.414062 131.976562 177.414062 130.445312 C 186.058594 129.683594 195.234375 123.09375 194.410156 113.214844 C 192.941406 95.980469 191.410156 78.804688 189.941406 61.570312 C 189.117188 52.21875 182.765625 44.398438 172.882812 44.398438 C 164.179688 44.398438 155.121094 52.277344 155.945312 61.691406 C 156.414062 67.042969 156.886719 72.335938 157.355469 77.6875 C 156.003906 76.570312 154.652344 75.511719 153.296875 74.6875 C 125.535156 56.394531 95.832031 37.574219 63.894531 27.871094 C 46.484375 22.457031 25.3125 18.929688 10.78125 32.574219 C 0.488281 42.222656 0.3125 59.75 2.019531 72.746094 C 4.429688 90.980469 9.960938 108.449219 16.664062 125.566406 C 27.488281 153.09375 40.367188 180.089844 55.25 205.617188 C 60.425781 214.554688 70.660156 223.144531 81.65625 221.730469 C 91.949219 220.378906 93.128906 208.910156 88.65625 201.203125 C 77.011719 181.207031 66.660156 160.265625 57.425781 138.976562 C 56.542969 136.976562 55.71875 134.976562 54.835938 132.917969 C 54.660156 132.566406 54.542969 132.269531 54.425781 131.917969 C 54.25 131.386719 54.015625 130.800781 53.835938 130.445312 C 52.074219 126.035156 50.425781 121.625 48.898438 117.15625 C 46.074219 108.980469 43.542969 100.746094 41.722656 92.332031 C 41.308594 90.511719 40.898438 88.570312 40.605469 86.746094 C 40.542969 86.570312 40.542969 86.453125 40.542969 86.273438 C 40.542969 85.980469 40.425781 85.570312 40.367188 84.980469 C 39.957031 81.453125 39.722656 77.804688 39.839844 74.21875 C 39.839844 73.628906 39.898438 72.921875 39.898438 72.160156 Z M 39.898438 72.160156 " fill-opacity="1" fill-rule="nonzero"/></svg>