<svg xmlns="http://www.w3.org/2000/svg" xmlns:xlink="http://www.w3.org/1999/xlink" width="419" zoomAndPan="magnify" viewBox="0 0 314.25 92.999996" height="124" preserveAspectRatio="xMidYMid meet" version="1.0"><defs><g/><clipPath id="d53854c78d"><path d="M 51 4 L 91.53125 4 L 91.53125 54 L 51 54 Z M 51 4 " clip-rule="nonzero"/></clipPath><clipPath id="45e7b43702"><path d="M 0.25 6 L 48 6 L 48 55 L 0.25 55 Z M 0.25 6 " clip-rule="nonzero"/></clipPath></defs><g clip-path="url(#d53854c78d)"><path fill="#9bbf7f" d="M 88.316406 9.328125 C 82.949219 1.382812 73.269531 5.113281 66.484375 8.441406 C 61.59375 10.820312 56.859375 13.734375 52.453125 16.945312 C 49.113281 19.398438 55.710938 28.0625 59.152344 25.554688 C 63.3125 22.511719 67.761719 19.785156 72.335938 17.464844 C 72.75 17.246094 73.167969 17.046875 73.582031 16.847656 C 73.640625 16.816406 73.796875 16.746094 73.914062 16.6875 C 74.042969 16.632812 74.171875 16.574219 74.300781 16.515625 C 75.191406 16.113281 76.09375 15.742188 77.011719 15.398438 C 78.605469 14.796875 80.253906 14.308594 81.933594 14.035156 C 82.246094 13.976562 82.578125 13.949219 82.894531 13.921875 C 82.878906 14.136719 82.863281 14.351562 82.835938 14.566406 C 82.75 15.539062 82.578125 16.5 82.375 17.464844 C 82.105469 18.78125 81.945312 19.257812 81.472656 20.777344 C 79.351562 27.519531 76.195312 33.945312 72.925781 40.199219 C 72.738281 38.0625 72.550781 35.921875 72.363281 33.773438 C 72.003906 29.582031 65.507812 29.570312 65.882812 33.800781 C 66.367188 39.335938 66.84375 44.886719 67.316406 50.425781 C 67.457031 52.089844 68.707031 53.867188 70.570312 53.710938 C 76.066406 53.222656 81.53125 52.734375 87.023438 52.246094 C 91.167969 51.886719 91.183594 45.320312 86.996094 45.675781 C 85.117188 45.835938 83.222656 46.023438 81.328125 46.179688 C 84.957031 39.164062 88.300781 31.9375 90.28125 24.277344 C 91.628906 18.96875 91.425781 13.949219 88.316406 9.328125 Z M 88.316406 9.328125 " fill-opacity="1" fill-rule="nonzero"/></g><path fill="#9bbf7f" d="M 64.917969 59.101562 C 60.058594 65.585938 55.179688 72.054688 50.316406 78.539062 C 45.671875 73.058594 41.039062 67.59375 36.390625 62.117188 C 38.125 62.03125 39.859375 61.929688 41.597656 61.84375 C 45.527344 61.628906 45.542969 55.429688 41.582031 55.632812 C 36.75 55.890625 31.914062 56.148438 27.082031 56.40625 C 25.472656 56.492188 23.9375 57.769531 24.023438 59.519531 C 24.285156 64.613281 24.542969 69.703125 24.8125 74.808594 C 25.03125 78.785156 31.152344 78.796875 30.9375 74.796875 C 30.851562 72.945312 30.753906 71.109375 30.652344 69.257812 C 36.144531 75.742188 41.652344 82.226562 47.148438 88.710938 C 48.953125 90.847656 53.199219 91.578125 55.066406 89.097656 C 61.132812 81.019531 67.171875 72.960938 73.238281 64.898438 C 76.824219 60.136719 68.21875 54.699219 64.917969 59.101562 Z M 64.917969 59.101562 " fill-opacity="1" fill-rule="nonzero"/><g clip-path="url(#45e7b43702)"><path fill="#9bbf7f" d="M 9.984375 18.351562 C 10.011719 18.164062 10.070312 17.792969 10.113281 17.621094 C 10.183594 17.304688 10.296875 17.019531 10.414062 16.71875 C 10.425781 16.660156 10.441406 16.632812 10.46875 16.589844 C 10.484375 16.558594 10.5 16.542969 10.511719 16.53125 C 10.671875 16.285156 10.871094 16.070312 11.074219 15.871094 C 11.085938 15.855469 11.117188 15.84375 11.128906 15.828125 C 11.359375 15.699219 11.589844 15.597656 11.832031 15.496094 C 11.949219 15.46875 12.046875 15.441406 12.148438 15.441406 C 12.320312 15.410156 12.507812 15.382812 12.695312 15.367188 C 12.878906 15.382812 13.496094 15.382812 13.710938 15.398438 C 14.214844 15.441406 14.703125 15.539062 15.1875 15.640625 C 15.261719 15.65625 15.363281 15.683594 15.476562 15.714844 C 15.632812 15.757812 15.777344 15.800781 15.933594 15.84375 C 17.253906 16.230469 18.53125 16.71875 19.792969 17.246094 C 20.382812 17.492188 20.96875 17.765625 21.558594 18.035156 C 21.628906 18.066406 22.261719 18.367188 22.363281 18.425781 C 22.777344 18.640625 23.191406 18.839844 23.59375 19.054688 C 27.050781 20.863281 30.410156 22.914062 33.691406 25.035156 C 32.816406 25.109375 31.929688 25.195312 31.054688 25.265625 C 28.800781 25.46875 26.910156 27.042969 26.921875 29.484375 C 26.921875 31.632812 28.832031 33.871094 31.082031 33.671875 C 35.226562 33.296875 39.375 32.941406 43.519531 32.566406 C 45.628906 32.378906 47.863281 30.773438 47.664062 28.363281 C 47.304688 24.160156 46.933594 19.972656 46.574219 15.769531 C 46.375 13.488281 44.824219 11.582031 42.414062 11.582031 C 40.292969 11.582031 38.082031 13.503906 38.28125 15.800781 C 38.398438 17.105469 38.511719 18.394531 38.628906 19.699219 C 38.296875 19.429688 37.96875 19.167969 37.636719 18.96875 C 30.867188 14.507812 23.625 9.917969 15.835938 7.550781 C 11.589844 6.230469 6.425781 5.371094 2.882812 8.699219 C 0.371094 11.050781 0.328125 15.324219 0.746094 18.496094 C 1.332031 22.941406 2.679688 27.203125 4.316406 31.375 C 6.957031 38.089844 10.097656 44.671875 13.726562 50.898438 C 14.988281 53.078125 17.484375 55.171875 20.167969 54.828125 C 22.675781 54.5 22.964844 51.703125 21.875 49.824219 C 19.035156 44.945312 16.507812 39.839844 14.257812 34.648438 C 14.042969 34.160156 13.839844 33.671875 13.625 33.167969 C 13.582031 33.082031 13.554688 33.011719 13.527344 32.925781 C 13.480469 32.796875 13.425781 32.652344 13.382812 32.566406 C 12.953125 31.492188 12.550781 30.414062 12.175781 29.324219 C 11.488281 27.332031 10.871094 25.324219 10.425781 23.273438 C 10.328125 22.828125 10.226562 22.355469 10.15625 21.910156 C 10.140625 21.867188 10.140625 21.835938 10.140625 21.792969 C 10.140625 21.722656 10.113281 21.621094 10.097656 21.480469 C 9.996094 20.617188 9.941406 19.730469 9.96875 18.855469 C 9.96875 18.710938 9.984375 18.539062 9.984375 18.351562 Z M 9.984375 18.351562 " fill-opacity="1" fill-rule="nonzero"/></g><g fill="#9bbf7f" fill-opacity="1"><g transform="translate(92.540812, 59.577761)"><g><path d="M 28.417969 12.976562 C 35.371094 12.976562 37.960938 0.96875 42.003906 -12.574219 C 42.125 -13.015625 41.839844 -13.382812 41.394531 -13.503906 C 40.953125 -13.625 40.546875 -13.339844 40.425781 -12.894531 C 38.285156 -5.175781 34 10.714844 30.683594 9.824219 C 28.21875 9.339844 30.523438 -3.074219 31.289062 -7.640625 C 33.714844 -21.0625 34.886719 -32.625 27.085938 -32.261719 C 22.882812 -32.261719 20.050781 -27.8125 15.441406 -14.753906 C 17.058594 -25.914062 15.726562 -36.546875 6.265625 -36.546875 C -4.648438 -36.546875 1.578125 -15.523438 3.394531 -12.25 C 3.597656 -11.886719 4.125 -11.683594 4.488281 -11.964844 C 4.851562 -12.25 4.972656 -12.695312 4.769531 -13.058594 C 2.019531 -17.988281 -0.808594 -34.441406 4.851562 -34.441406 C 10.429688 -34.441406 11.644531 -26.359375 10.914062 -18.230469 C 10.308594 -10.957031 9.054688 -6.347656 8.246094 -1.011719 C 7.964844 0.890625 12.855469 0.769531 13.097656 -0.6875 C 13.179688 -1.253906 16.738281 -13.460938 17.503906 -15.726562 C 19 -20.050781 22.839844 -30.320312 25.832031 -30.320312 C 29.792969 -30.320312 28.21875 -19.203125 26.480469 -9.054688 C 24.863281 0.6875 22.636719 12.976562 28.417969 12.976562 Z M 28.417969 12.976562 "/></g></g></g><g fill="#9bbf7f" fill-opacity="1"><g transform="translate(134.209491, 59.577761)"><g><path d="M 3.679688 19.890625 C 10.550781 19.890625 13.257812 10.914062 14.230469 1.496094 C 18.191406 -1.617188 20.214844 -6.347656 21.953125 -12.53125 C 22.074219 -12.976562 21.828125 -13.382812 21.386719 -13.503906 C 20.941406 -13.625 20.535156 -13.382812 20.414062 -12.9375 C 19.121094 -8.410156 17.300781 -3.515625 14.433594 -0.847656 C 14.714844 -5.09375 15.039062 -9.097656 14.753906 -13.179688 C 14.554688 -15.242188 10.105469 -14.835938 9.742188 -12.9375 C 8.609375 -8.367188 5.78125 -0.0390625 4.324219 -0.0390625 C 2.34375 -0.0390625 4.125 -8.851562 5.539062 -13.785156 C 6.144531 -15.886719 1.171875 -15.847656 0.769531 -14.269531 C -1.738281 -5.253906 -3.152344 3.273438 2.0625 3.273438 C 5.660156 3.273438 8.289062 -2.789062 9.90625 -7.640625 C 9.78125 -4.730469 9.660156 -1.050781 9.175781 2.546875 C 3.839844 5.011719 0.0390625 8.8125 -0.203125 13.945312 C -0.363281 16.898438 0.96875 19.890625 3.679688 19.890625 Z M 2.507812 17.140625 C 1.375 17.140625 1.335938 15.523438 1.414062 14.027344 C 1.699219 9.863281 4.6875 6.628906 8.894531 4.488281 C 8.167969 9.296875 5.660156 16.574219 2.507812 17.140625 Z M 2.507812 17.140625 "/></g></g></g><g fill="#9bbf7f" fill-opacity="1"><g transform="translate(155.791786, 59.577761)"><g><path d="M 11.925781 6.144531 C 16.777344 6.144531 24.375 -5.621094 26.480469 -12.492188 C 26.761719 -13.421875 25.308594 -14.148438 24.902344 -12.976562 C 21.789062 -3.71875 15.121094 3.558594 12.9375 3.558594 C 12.167969 3.558594 15.847656 -12.289062 17.058594 -15.886719 C 17.503906 -17.019531 12.734375 -17.910156 12.328125 -16.371094 C 12.085938 -15.683594 11.804688 -14.875 11.480469 -14.027344 C 10.511719 -16.128906 8.691406 -17.667969 5.296875 -17.464844 C -2.425781 -17.019531 -4.730469 0.445312 2.101562 0.445312 C 5.539062 0.445312 7.964844 -2.75 9.582031 -5.578125 C 8.488281 0.324219 8.167969 6.144531 11.925781 6.144531 Z M 4.324219 -2.019531 C 2.101562 -2.019531 3.839844 -15.441406 6.671875 -15.441406 C 8.449219 -15.441406 9.945312 -13.664062 10.589844 -11.804688 C 8.652344 -7.15625 5.941406 -2.019531 4.324219 -2.019531 Z M 4.324219 -2.019531 "/></g></g></g><g fill="#9bbf7f" fill-opacity="1"><g transform="translate(181.900583, 59.577761)"><g><path d="M 23.367188 10.875 C 29.308594 10.875 32.867188 2.828125 36.34375 -11.480469 C 36.667969 -12.816406 36.910156 -13.179688 35.898438 -13.460938 C 34.929688 -13.746094 35.050781 -13.097656 34.726562 -11.84375 C 31.652344 0 27.855469 7.84375 25.507812 7.84375 C 23.972656 7.84375 24.941406 1.210938 25.308594 -2.585938 C 26.035156 -8.289062 26.722656 -14.59375 22.476562 -14.59375 C 19.40625 -14.59375 16.9375 -12.734375 15.242188 -9.21875 C 15.726562 -14.269531 15.199219 -19.363281 11.644531 -19.363281 C 8.367188 -19.363281 6.304688 -12.894531 4.769531 -7.519531 L 4.890625 -12.773438 C 4.890625 -14.714844 0.0390625 -14.390625 0.0390625 -12.816406 L -0.242188 -0.605469 C -0.242188 1.253906 4.246094 1.210938 4.609375 -0.566406 C 5.699219 -5.621094 8.609375 -16.089844 9.945312 -16.089844 C 11.601562 -16.089844 9.984375 -4.6875 9.097656 -0.929688 C 8.691406 0.6875 13.460938 1.171875 13.90625 -0.527344 C 15 -4.769531 17.789062 -12.410156 19.847656 -12.410156 C 21.546875 -12.410156 21.023438 -7.4375 20.414062 -2.628906 C 19.769531 4.042969 18.71875 10.875 23.367188 10.875 Z M 23.367188 10.875 "/></g></g></g><g fill="#9bbf7f" fill-opacity="1"><g transform="translate(218.03237, 59.577761)"><g><path d="M -3.800781 15.929688 C 2.871094 16.414062 3.195312 8.609375 4.445312 -1.050781 C 4.933594 -5.621094 8.488281 -14.917969 10.589844 -14.917969 C 12.207031 -14.917969 12.894531 -9.824219 12.894531 -6.628906 C 9.296875 -5.214844 6.914062 -3.195312 6.914062 0.890625 C 6.914062 3.71875 8.570312 6.226562 11.320312 6.226562 C 15.484375 6.226562 17.503906 -0.769531 17.746094 -6.710938 C 20.820312 -7.964844 23.488281 -9.5 24.296875 -12.492188 C 24.417969 -12.9375 24.214844 -13.382812 23.769531 -13.503906 C 23.324219 -13.625 22.882812 -13.421875 22.761719 -12.976562 C 22.152344 -10.714844 20.132812 -9.460938 17.746094 -8.449219 C 17.625 -10.226562 16.535156 -17.503906 12.25 -17.503906 C 9.5 -17.503906 6.871094 -13.988281 4.851562 -8.652344 L 4.851562 -13.179688 C 4.851562 -15.320312 0 -14.796875 0 -13.097656 C 0 -2.75 -0.402344 8.085938 -3.800781 15.929688 Z M 9.703125 3.476562 C 8.972656 3.476562 8.410156 2.222656 8.410156 0.890625 C 8.410156 -1.980469 10.226562 -3.679688 12.773438 -4.8125 C 12.53125 -2.34375 11.277344 3.476562 9.703125 3.476562 Z M 9.703125 3.476562 "/></g></g></g><g fill="#9bbf7f" fill-opacity="1"><g transform="translate(241.958752, 59.577761)"><g><path d="M 11.925781 6.144531 C 16.777344 6.144531 24.375 -5.621094 26.480469 -12.492188 C 26.761719 -13.421875 25.308594 -14.148438 24.902344 -12.976562 C 21.789062 -3.71875 15.121094 3.558594 12.9375 3.558594 C 12.167969 3.558594 15.847656 -12.289062 17.058594 -15.886719 C 17.503906 -17.019531 12.734375 -17.910156 12.328125 -16.371094 C 12.085938 -15.683594 11.804688 -14.875 11.480469 -14.027344 C 10.511719 -16.128906 8.691406 -17.667969 5.296875 -17.464844 C -2.425781 -17.019531 -4.730469 0.445312 2.101562 0.445312 C 5.539062 0.445312 7.964844 -2.75 9.582031 -5.578125 C 8.488281 0.324219 8.167969 6.144531 11.925781 6.144531 Z M 4.324219 -2.019531 C 2.101562 -2.019531 3.839844 -15.441406 6.671875 -15.441406 C 8.449219 -15.441406 9.945312 -13.664062 10.589844 -11.804688 C 8.652344 -7.15625 5.941406 -2.019531 4.324219 -2.019531 Z M 4.324219 -2.019531 "/></g></g></g><g fill="#9bbf7f" fill-opacity="1"><g transform="translate(268.067554, 59.577761)"><g><path d="M 14.472656 6.429688 C 18.109375 6.429688 21.144531 -3.03125 24.132812 -12.453125 C 24.253906 -12.894531 24.011719 -13.300781 23.570312 -13.421875 C 23.125 -13.542969 22.71875 -13.300781 22.597656 -12.855469 C 19.445312 -4.003906 16.738281 3.636719 15.242188 3.636719 C 13.746094 3.636719 14.554688 -3.636719 14.957031 -5.902344 C 15.765625 -10.996094 16.25 -17.542969 11.15625 -17.542969 C 7.398438 -17.542969 5.578125 -13.257812 4.203125 -9.097656 C 4.324219 -12.773438 4.566406 -15.402344 5.011719 -18.839844 C 12.25 -22.4375 19.769531 -25.589844 16.898438 -32.460938 C 14.554688 -38.121094 7.277344 -37.917969 3.757812 -32.382812 C 0.566406 -27.367188 0.445312 -22.394531 -1.335938 -0.648438 C -1.535156 1.253906 3.4375 0.808594 3.558594 -0.566406 C 4.003906 -4.40625 7.074219 -15.28125 9.742188 -15.28125 C 11.277344 -15.28125 10.308594 -8.410156 9.703125 -2.828125 C 9.136719 2.34375 8.730469 6.429688 14.472656 6.429688 Z M 5.296875 -20.777344 C 5.984375 -25.671875 6.992188 -29.148438 8.328125 -31.085938 C 10.957031 -34.929688 13.460938 -35.453125 15.402344 -31.855469 C 17.746094 -27.488281 11.644531 -23.367188 5.296875 -20.777344 Z M 5.296875 -20.777344 "/></g></g></g></svg>