<svg width="41" height="41" viewBox="0 0 41 41" fill="none" xmlns="http://www.w3.org/2000/svg">
<rect width="41" height="41" fill="#1E1E1E"/>
<g clip-path="url(#clip0_0_1)">
<rect width="1440" height="1024" transform="translate(-643 -418)" fill="#E5EEDD"/>
<rect x="-112" y="-235" width="732" height="741" rx="25" fill="white"/>
<rect x="-112" y="-159" width="732" height="197" fill="#A0E03A"/>
<path d="M121 22.5C121 73.5863 76.9 115 22.5 115C-31.9 115 -76 73.5863 -76 22.5C-76 -28.5863 -31.9 -70 22.5 -70C76.9 -70 121 -28.5863 121 22.5Z" fill="#808080"/>
</g>
<path d="M21.0901 0C20.8335 0 20.577 0.205257 20.423 0.461827L15.5995 9.74969C15.4969 10.0063 15.2403 10.2115 14.9324 10.2115H7.69712C3.43805 10.2115 0 13.6496 0 17.9086V40.5382C0 40.7947 0.205257 41 0.461827 41H40.5382C40.7947 41 41 40.7947 41 40.5382V10.7247C41 10.4168 40.7947 10.2628 40.5382 10.2628H36.3817C36.1252 10.2628 35.8686 10.0576 35.7146 9.801L30.8911 0.513141C30.7372 0.256571 30.5319 0.0513141 30.224 0.0513141H20.9362L21.0901 0ZM7.79975 15.3942C9.23655 15.3942 10.3655 16.5232 10.3655 17.9599C10.3655 19.3967 9.23655 20.5257 7.79975 20.5257C6.36295 20.5257 5.23404 19.3967 5.23404 17.9599C5.23404 16.5232 6.36295 15.3942 7.79975 15.3942ZM25.7597 15.3942C31.4043 15.3942 36.0225 20.0125 36.0225 25.6571C36.0225 31.3016 31.4043 35.9199 25.7597 35.9199C20.1151 35.9199 15.4969 31.3016 15.4969 25.6571C15.4969 20.0125 20.1151 15.3942 25.7597 15.3942ZM25.7597 20.5257C22.9374 20.5257 20.6283 22.8348 20.6283 25.6571C20.6283 28.4793 22.9374 30.7885 25.7597 30.7885C28.582 30.7885 30.8911 28.4793 30.8911 25.6571C30.8911 22.8348 28.582 20.5257 25.7597 20.5257Z" fill="white"/>
<defs>
<clipPath id="clip0_0_1">
<rect width="1440" height="1024" fill="white" transform="translate(-643 -418)"/>
</clipPath>
</defs>
</svg>
